<?xml version="1.0" encoding="utf-8"?>
<!-- Generator: Adobe Illustrator 26.4.1, SVG Export Plug-In . SVG Version: 6.00 Build 0)  -->
<svg version="1.1" id="Layer_1" xmlns="http://www.w3.org/2000/svg" xmlns:xlink="http://www.w3.org/1999/xlink" x="0px" y="0px"
	 viewBox="0 0 200 200" style="enable-background:new 0 0 200 200;" xml:space="preserve">
<style type="text/css">
	.st0{fill:#3581B8;}
</style>
<g>
	<g>
		<path class="st0" d="M15.6,141.09c-1.77,0-3.41-0.28-4.9-0.85c-1.49-0.57-2.79-1.37-3.88-2.42c-1.09-1.05-1.94-2.27-2.55-3.68
			c-0.61-1.41-0.91-2.96-0.91-4.64c0-1.69,0.3-3.24,0.91-4.64c0.61-1.41,1.47-2.64,2.58-3.68c1.11-1.05,2.41-1.85,3.91-2.42
			c1.49-0.57,3.14-0.85,4.93-0.85c1.99,0,3.77,0.33,5.37,0.99c1.59,0.66,2.93,1.62,4.02,2.88l-3.3,3.07
			c-0.83-0.88-1.73-1.52-2.69-1.94c-0.96-0.42-2.02-0.62-3.17-0.62c-1.07,0-2.05,0.18-2.95,0.53c-0.9,0.35-1.67,0.85-2.32,1.49
			c-0.65,0.64-1.15,1.4-1.51,2.27c-0.35,0.88-0.53,1.85-0.53,2.91c0,1.02,0.18,1.98,0.53,2.87c0.35,0.89,0.85,1.65,1.51,2.29
			c0.65,0.64,1.42,1.14,2.31,1.51c0.89,0.36,1.86,0.54,2.93,0.54c1.02,0,2.02-0.17,2.99-0.51c0.97-0.34,1.92-0.91,2.83-1.7
			l2.95,3.75c-1.24,0.94-2.66,1.65-4.26,2.13C18.8,140.85,17.2,141.09,15.6,141.09z M19.92,137.57v-8.42h4.74v9.1L19.92,137.57z"/>
		<path class="st0" d="M36.87,140.96c-1.96,0-3.68-0.38-5.16-1.15c-1.47-0.77-2.62-1.82-3.43-3.15c-0.81-1.33-1.22-2.86-1.22-4.56
			c0-1.71,0.39-3.24,1.17-4.58c0.78-1.35,1.87-2.4,3.27-3.16c1.4-0.76,2.97-1.14,4.72-1.14c1.69,0,3.21,0.36,4.56,1.09
			c1.36,0.73,2.43,1.75,3.22,3.08c0.79,1.32,1.19,2.91,1.19,4.77c0,0.19-0.01,0.41-0.03,0.66c-0.02,0.25-0.04,0.48-0.06,0.69h-14
			v-2.92h11.37l-1.95,0.86c0.02-0.9-0.15-1.68-0.51-2.34c-0.36-0.66-0.86-1.18-1.51-1.55c-0.64-0.37-1.39-0.56-2.24-0.56
			c-0.85,0-1.61,0.19-2.26,0.56c-0.65,0.37-1.16,0.9-1.52,1.57c-0.36,0.67-0.54,1.47-0.54,2.39v0.77c0,0.96,0.21,1.79,0.64,2.5
			c0.43,0.7,1.01,1.24,1.76,1.62c0.75,0.37,1.64,0.56,2.69,0.56c0.9,0,1.69-0.14,2.39-0.42c0.69-0.28,1.33-0.69,1.91-1.25l2.66,2.88
			c-0.79,0.9-1.78,1.59-2.98,2.07C39.8,140.72,38.43,140.96,36.87,140.96z"/>
		<path class="st0" d="M53.52,140.96c-1.47,0-2.88-0.18-4.23-0.53c-1.35-0.35-2.42-0.8-3.24-1.33l1.63-3.56
			c0.81,0.47,1.76,0.86,2.83,1.17c1.08,0.31,2.14,0.46,3.19,0.46c1.15,0,1.97-0.14,2.45-0.42c0.48-0.28,0.72-0.66,0.72-1.15
			c0-0.41-0.19-0.71-0.56-0.91c-0.37-0.2-0.86-0.36-1.47-0.46c-0.61-0.11-1.29-0.21-2.03-0.32c-0.75-0.11-1.49-0.26-2.23-0.45
			c-0.74-0.19-1.42-0.46-2.05-0.82c-0.63-0.35-1.13-0.84-1.51-1.46c-0.37-0.62-0.56-1.42-0.56-2.4c0-1.09,0.32-2.06,0.96-2.9
			c0.64-0.84,1.55-1.5,2.72-1.97c1.17-0.47,2.59-0.7,4.26-0.7c1.2,0,2.4,0.13,3.6,0.4c1.21,0.27,2.23,0.64,3.06,1.11l-1.7,3.56
			c-0.81-0.47-1.64-0.8-2.48-0.99c-0.84-0.19-1.65-0.29-2.42-0.29c-1.15,0-1.99,0.15-2.5,0.45c-0.51,0.3-0.77,0.68-0.77,1.15
			c0,0.43,0.19,0.75,0.58,0.98c0.38,0.22,0.89,0.39,1.51,0.5c0.62,0.11,1.3,0.21,2.05,0.32c0.75,0.11,1.48,0.26,2.21,0.45
			c0.73,0.19,1.4,0.46,2.03,0.82c0.63,0.35,1.13,0.84,1.51,1.46c0.37,0.62,0.56,1.42,0.56,2.4c0,1.05-0.32,1.98-0.96,2.8
			c-0.64,0.82-1.56,1.47-2.77,1.94C56.72,140.73,55.25,140.96,53.52,140.96z"/>
		<path class="st0" d="M74.41,123.22c1.37,0,2.59,0.27,3.67,0.82c1.08,0.54,1.93,1.38,2.55,2.5c0.62,1.12,0.93,2.56,0.93,4.31v9.87
			h-5v-9.1c0-1.39-0.3-2.41-0.91-3.08c-0.61-0.66-1.47-0.99-2.58-0.99c-0.79,0-1.5,0.17-2.13,0.51c-0.63,0.34-1.12,0.84-1.47,1.51
			c-0.35,0.66-0.53,1.54-0.53,2.63v8.52h-5v-23.77h5v11.31l-1.12-1.44c0.62-1.15,1.51-2.04,2.66-2.66
			C71.62,123.53,72.93,123.22,74.41,123.22z"/>
		<path class="st0" d="M93.88,140.71v-22.42h9.71c2.01,0,3.74,0.33,5.19,0.98c1.45,0.65,2.57,1.59,3.36,2.8
			c0.79,1.22,1.19,2.66,1.19,4.32c0,1.69-0.4,3.13-1.19,4.34c-0.79,1.21-1.91,2.13-3.36,2.75c-1.45,0.63-3.18,0.94-5.19,0.94h-6.85
			l2.37-2.24v8.52H93.88z M99.1,132.76l-2.37-2.47h6.57c1.58,0,2.78-0.34,3.59-1.02c0.81-0.68,1.22-1.64,1.22-2.88
			c0-1.24-0.41-2.19-1.22-2.87c-0.81-0.67-2.01-1.01-3.59-1.01h-6.57l2.37-2.47V132.76z M108.17,140.71l-5.64-8.14h5.57l5.64,8.14
			H108.17z"/>
		<path class="st0" d="M124.82,140.96c-1.96,0-3.68-0.38-5.16-1.15c-1.47-0.77-2.62-1.82-3.43-3.15c-0.81-1.33-1.22-2.86-1.22-4.56
			c0-1.71,0.39-3.24,1.17-4.58c0.78-1.35,1.87-2.4,3.27-3.16c1.4-0.76,2.97-1.14,4.72-1.14c1.69,0,3.21,0.36,4.56,1.09
			c1.36,0.73,2.43,1.75,3.22,3.08c0.79,1.32,1.19,2.91,1.19,4.77c0,0.19-0.01,0.41-0.03,0.66c-0.02,0.25-0.04,0.48-0.06,0.69h-14
			v-2.92h11.37l-1.95,0.86c0.02-0.9-0.15-1.68-0.51-2.34c-0.36-0.66-0.86-1.18-1.51-1.55c-0.64-0.37-1.39-0.56-2.24-0.56
			c-0.85,0-1.61,0.19-2.26,0.56c-0.65,0.37-1.16,0.9-1.52,1.57c-0.36,0.67-0.54,1.47-0.54,2.39v0.77c0,0.96,0.21,1.79,0.64,2.5
			c0.43,0.7,1.01,1.24,1.76,1.62c0.75,0.37,1.64,0.56,2.69,0.56c0.9,0,1.69-0.14,2.39-0.42c0.69-0.28,1.33-0.69,1.91-1.25l2.66,2.88
			c-0.79,0.9-1.78,1.59-2.98,2.07C127.76,140.72,126.38,140.96,124.82,140.96z"/>
		<path class="st0" d="M141.48,140.96c-1.47,0-2.88-0.18-4.23-0.53c-1.35-0.35-2.42-0.8-3.24-1.33l1.63-3.56
			c0.81,0.47,1.76,0.86,2.83,1.17c1.08,0.31,2.14,0.46,3.19,0.46c1.15,0,1.97-0.14,2.45-0.42c0.48-0.28,0.72-0.66,0.72-1.15
			c0-0.41-0.19-0.71-0.56-0.91c-0.37-0.2-0.86-0.36-1.47-0.46c-0.61-0.11-1.29-0.21-2.03-0.32c-0.75-0.11-1.49-0.26-2.23-0.45
			c-0.74-0.19-1.42-0.46-2.05-0.82c-0.63-0.35-1.13-0.84-1.51-1.46c-0.37-0.62-0.56-1.42-0.56-2.4c0-1.09,0.32-2.06,0.96-2.9
			c0.64-0.84,1.55-1.5,2.72-1.97c1.17-0.47,2.59-0.7,4.26-0.7c1.2,0,2.4,0.13,3.6,0.4c1.21,0.27,2.23,0.64,3.06,1.11l-1.7,3.56
			c-0.81-0.47-1.64-0.8-2.48-0.99c-0.84-0.19-1.65-0.29-2.42-0.29c-1.15,0-1.99,0.15-2.5,0.45c-0.51,0.3-0.77,0.68-0.77,1.15
			c0,0.43,0.19,0.75,0.58,0.98c0.38,0.22,0.89,0.39,1.51,0.5c0.62,0.11,1.3,0.21,2.05,0.32c0.75,0.11,1.48,0.26,2.21,0.45
			c0.73,0.19,1.4,0.46,2.03,0.82c0.63,0.35,1.13,0.84,1.51,1.46c0.37,0.62,0.56,1.42,0.56,2.4c0,1.05-0.32,1.98-0.96,2.8
			c-0.64,0.82-1.56,1.47-2.77,1.94C144.68,140.73,143.21,140.96,141.48,140.96z"/>
		<path class="st0" d="M160.06,140.96c-1.82,0-3.43-0.38-4.85-1.15c-1.42-0.77-2.54-1.82-3.35-3.15c-0.81-1.33-1.22-2.86-1.22-4.56
			c0-1.73,0.41-3.26,1.22-4.6c0.81-1.33,1.93-2.38,3.35-3.14c1.42-0.76,3.04-1.14,4.85-1.14c1.84,0,3.47,0.38,4.9,1.14
			c1.43,0.76,2.55,1.8,3.36,3.14c0.81,1.33,1.22,2.87,1.22,4.6c0,1.73-0.41,3.26-1.22,4.58c-0.81,1.32-1.93,2.37-3.36,3.14
			C163.53,140.58,161.89,140.96,160.06,140.96z M160.06,136.86c0.85,0,1.61-0.19,2.26-0.56c0.65-0.37,1.17-0.92,1.57-1.65
			c0.39-0.73,0.59-1.58,0.59-2.56c0-1-0.2-1.86-0.59-2.56c-0.4-0.7-0.92-1.24-1.57-1.62c-0.65-0.37-1.39-0.56-2.23-0.56
			c-0.83,0-1.58,0.19-2.24,0.56c-0.66,0.37-1.19,0.91-1.59,1.62c-0.4,0.7-0.59,1.56-0.59,2.56c0,0.98,0.2,1.84,0.59,2.56
			c0.39,0.73,0.92,1.28,1.59,1.65C158.51,136.68,159.24,136.86,160.06,136.86z"/>
		<path class="st0" d="M172.07,140.71v-17.23h4.77v4.9l-0.67-1.44c0.51-1.22,1.33-2.14,2.47-2.77c1.13-0.63,2.51-0.94,4.13-0.94
			v4.64c-0.19-0.04-0.38-0.07-0.56-0.1c-0.18-0.02-0.36-0.03-0.53-0.03c-1.41,0-2.53,0.4-3.36,1.19c-0.83,0.79-1.25,2.01-1.25,3.65
			v8.14H172.07z"/>
		<path class="st0" d="M183.5,127.7v-3.84h11.95v3.84H183.5z M192.6,140.96c-2.03,0-3.61-0.52-4.74-1.55
			c-1.13-1.04-1.7-2.58-1.7-4.63v-15.12h5.03v15.02c0,0.73,0.19,1.29,0.56,1.7c0.37,0.41,0.88,0.61,1.52,0.61
			c0.81,0,1.49-0.21,2.05-0.64l1.31,3.52c-0.49,0.36-1.09,0.64-1.81,0.82C194.11,140.87,193.37,140.96,192.6,140.96z"/>
	</g>
	<g>
		<path class="st0" d="M39.07,150.24l-1.58-4.73h0.7l1.45,4.36h-0.35l1.51-4.36h0.62l1.47,4.36h-0.34l1.47-4.36h0.64l-1.58,4.73
			h-0.71l-1.38-4.04h0.18l-1.38,4.04H39.07z"/>
		<path class="st0" d="M49.03,150.24l-1.58-4.73h0.7l1.45,4.36h-0.35l1.51-4.36h0.62l1.47,4.36h-0.34l1.47-4.36h0.64l-1.58,4.73
			h-0.71l-1.38-4.04h0.18l-1.38,4.04H49.03z"/>
		<path class="st0" d="M58.99,150.24l-1.58-4.73h0.7l1.45,4.36h-0.35l1.51-4.36h0.62l1.47,4.36h-0.34l1.47-4.36h0.64L63,150.24H62.3
			l-1.38-4.04h0.18l-1.38,4.04H58.99z"/>
		<path class="st0" d="M67.69,150.28c-0.13,0-0.23-0.04-0.32-0.13c-0.09-0.09-0.14-0.2-0.14-0.33c0-0.13,0.05-0.24,0.14-0.33
			c0.09-0.09,0.2-0.13,0.32-0.13c0.12,0,0.23,0.04,0.31,0.13c0.09,0.09,0.13,0.2,0.13,0.33c0,0.14-0.04,0.25-0.13,0.33
			C67.92,150.24,67.81,150.28,67.69,150.28z"/>
		<path class="st0" d="M73.52,150.3c-0.36,0-0.7-0.06-1.01-0.18c-0.31-0.12-0.57-0.29-0.8-0.51c-0.23-0.22-0.4-0.47-0.53-0.77
			c-0.13-0.29-0.19-0.61-0.19-0.97c0-0.35,0.06-0.67,0.19-0.97c0.13-0.29,0.3-0.55,0.53-0.77c0.23-0.22,0.49-0.39,0.8-0.51
			c0.31-0.12,0.64-0.18,1.01-0.18c0.37,0,0.72,0.06,1.03,0.18c0.31,0.12,0.57,0.3,0.79,0.55l-0.42,0.42
			c-0.19-0.19-0.4-0.33-0.63-0.42c-0.23-0.09-0.47-0.13-0.74-0.13c-0.27,0-0.52,0.05-0.75,0.14c-0.23,0.09-0.43,0.22-0.6,0.38
			c-0.17,0.16-0.3,0.35-0.39,0.58c-0.09,0.22-0.14,0.46-0.14,0.73c0,0.26,0.05,0.5,0.14,0.72c0.09,0.22,0.22,0.42,0.39,0.58
			c0.17,0.16,0.37,0.29,0.6,0.38c0.23,0.09,0.48,0.13,0.75,0.13c0.25,0,0.49-0.04,0.73-0.12c0.23-0.08,0.45-0.21,0.64-0.39
			l0.38,0.51c-0.23,0.2-0.51,0.35-0.82,0.45C74.18,150.25,73.85,150.3,73.52,150.3z M74.66,149.61v-1.76h0.65v1.84L74.66,149.61z"/>
		<path class="st0" d="M79.64,149.66h2.75v0.59h-3.43v-4.73h3.33v0.59h-2.66V149.66z M79.58,147.56h2.43v0.57h-2.43V147.56z"/>
		<path class="st0" d="M87.22,150.3c-0.36,0-0.7-0.06-1.03-0.17c-0.33-0.11-0.59-0.25-0.78-0.43l0.25-0.53
			c0.18,0.16,0.41,0.29,0.69,0.39c0.28,0.1,0.57,0.16,0.87,0.16c0.27,0,0.5-0.03,0.67-0.09c0.17-0.06,0.3-0.15,0.38-0.26
			c0.08-0.11,0.12-0.24,0.12-0.37c0-0.16-0.05-0.29-0.16-0.39c-0.11-0.1-0.24-0.18-0.41-0.24c-0.17-0.06-0.35-0.11-0.56-0.16
			c-0.2-0.04-0.41-0.1-0.61-0.16c-0.2-0.06-0.39-0.14-0.56-0.23c-0.17-0.09-0.3-0.22-0.41-0.38c-0.1-0.16-0.16-0.37-0.16-0.62
			c0-0.24,0.06-0.47,0.19-0.67c0.13-0.2,0.33-0.37,0.59-0.49c0.27-0.12,0.61-0.19,1.02-0.19c0.27,0,0.55,0.04,0.82,0.11
			c0.27,0.07,0.5,0.18,0.7,0.31l-0.22,0.54c-0.2-0.14-0.42-0.23-0.64-0.29c-0.22-0.06-0.44-0.09-0.65-0.09
			c-0.27,0-0.48,0.03-0.65,0.1c-0.17,0.07-0.3,0.16-0.37,0.27c-0.08,0.11-0.12,0.24-0.12,0.38c0,0.17,0.05,0.3,0.16,0.4
			c0.11,0.1,0.24,0.18,0.41,0.24c0.17,0.06,0.35,0.11,0.56,0.16c0.2,0.05,0.41,0.1,0.61,0.16c0.2,0.06,0.39,0.14,0.56,0.23
			c0.17,0.09,0.3,0.22,0.41,0.38c0.1,0.16,0.16,0.36,0.16,0.61c0,0.24-0.07,0.46-0.2,0.67c-0.13,0.2-0.33,0.37-0.6,0.49
			C87.98,150.24,87.64,150.3,87.22,150.3z"/>
		<path class="st0" d="M93.08,150.24H92.4v-4.73h0.68V150.24z M95.85,148.14h-2.84v-0.59h2.84V148.14z M95.79,145.52h0.68v4.73
			h-0.68V145.52z"/>
		<path class="st0" d="M99.99,148.14v-0.56h1.82v0.56H99.99z"/>
		<path class="st0" d="M105.33,150.24v-4.73h1.84c0.41,0,0.77,0.07,1.06,0.2c0.29,0.13,0.52,0.32,0.67,0.57
			c0.16,0.25,0.24,0.54,0.24,0.88s-0.08,0.64-0.24,0.88c-0.16,0.25-0.38,0.43-0.67,0.56c-0.29,0.13-0.65,0.2-1.06,0.2h-1.47
			l0.3-0.31v1.75H105.33z M106,148.56l-0.3-0.33h1.45c0.43,0,0.76-0.09,0.98-0.28s0.33-0.45,0.33-0.79s-0.11-0.6-0.33-0.78
			c-0.22-0.18-0.55-0.28-0.98-0.28h-1.45l0.3-0.34V148.56z M108.49,150.24l-1.2-1.71h0.72l1.22,1.71H108.49z"/>
		<path class="st0" d="M113.27,149.66h2.75v0.59h-3.43v-4.73h3.33v0.59h-2.66V149.66z M113.21,147.56h2.43v0.57h-2.43V147.56z"/>
		<path class="st0" d="M120.86,150.3c-0.36,0-0.7-0.06-1.03-0.17c-0.33-0.11-0.59-0.25-0.78-0.43l0.25-0.53
			c0.18,0.16,0.41,0.29,0.69,0.39c0.28,0.1,0.57,0.16,0.87,0.16c0.27,0,0.5-0.03,0.67-0.09c0.17-0.06,0.3-0.15,0.38-0.26
			c0.08-0.11,0.12-0.24,0.12-0.37c0-0.16-0.05-0.29-0.16-0.39c-0.11-0.1-0.24-0.18-0.41-0.24c-0.17-0.06-0.35-0.11-0.56-0.16
			c-0.2-0.04-0.41-0.1-0.61-0.16c-0.2-0.06-0.39-0.14-0.56-0.23c-0.17-0.09-0.3-0.22-0.41-0.38c-0.1-0.16-0.16-0.37-0.16-0.62
			c0-0.24,0.06-0.47,0.19-0.67s0.33-0.37,0.59-0.49c0.27-0.12,0.61-0.19,1.02-0.19c0.27,0,0.55,0.04,0.82,0.11
			c0.27,0.07,0.5,0.18,0.7,0.31l-0.22,0.54c-0.2-0.14-0.42-0.23-0.64-0.29c-0.22-0.06-0.44-0.09-0.65-0.09
			c-0.27,0-0.48,0.03-0.65,0.1c-0.17,0.07-0.3,0.16-0.37,0.27s-0.12,0.24-0.12,0.38c0,0.17,0.05,0.3,0.16,0.4
			c0.11,0.1,0.24,0.18,0.41,0.24c0.17,0.06,0.35,0.11,0.56,0.16c0.2,0.05,0.41,0.1,0.61,0.16c0.2,0.06,0.39,0.14,0.56,0.23
			c0.17,0.09,0.3,0.22,0.41,0.38c0.1,0.16,0.16,0.36,0.16,0.61c0,0.24-0.07,0.46-0.2,0.67c-0.13,0.2-0.33,0.37-0.6,0.49
			C121.62,150.24,121.28,150.3,120.86,150.3z"/>
		<path class="st0" d="M128.17,150.3c-0.36,0-0.69-0.06-1-0.18c-0.31-0.12-0.57-0.29-0.8-0.51c-0.23-0.22-0.4-0.47-0.53-0.77
			c-0.13-0.29-0.19-0.61-0.19-0.96c0-0.35,0.06-0.67,0.19-0.96c0.13-0.29,0.3-0.55,0.53-0.77c0.22-0.22,0.49-0.39,0.8-0.51
			c0.31-0.12,0.64-0.18,1.01-0.18c0.36,0,0.69,0.06,1,0.18c0.31,0.12,0.57,0.29,0.8,0.51c0.22,0.22,0.4,0.47,0.52,0.77
			c0.12,0.3,0.19,0.62,0.19,0.96c0,0.35-0.06,0.67-0.19,0.97c-0.12,0.29-0.3,0.55-0.52,0.77c-0.23,0.22-0.49,0.39-0.8,0.51
			C128.87,150.24,128.53,150.3,128.17,150.3z M128.17,149.7c0.27,0,0.51-0.04,0.73-0.13c0.22-0.09,0.42-0.22,0.58-0.38
			c0.16-0.16,0.29-0.36,0.38-0.58c0.09-0.22,0.14-0.46,0.14-0.72c0-0.26-0.05-0.5-0.14-0.72c-0.09-0.22-0.22-0.41-0.38-0.58
			c-0.16-0.17-0.36-0.29-0.58-0.38c-0.22-0.09-0.47-0.14-0.73-0.14c-0.26,0-0.5,0.05-0.73,0.14c-0.22,0.09-0.42,0.22-0.58,0.38
			c-0.17,0.17-0.3,0.36-0.39,0.58c-0.09,0.22-0.14,0.46-0.14,0.72c0,0.26,0.05,0.5,0.14,0.72c0.09,0.22,0.22,0.41,0.39,0.58
			c0.17,0.16,0.36,0.29,0.58,0.38C127.66,149.65,127.91,149.7,128.17,149.7z"/>
		<path class="st0" d="M134.07,150.24v-4.73h1.84c0.41,0,0.77,0.07,1.06,0.2c0.29,0.13,0.52,0.32,0.67,0.57
			c0.16,0.25,0.24,0.54,0.24,0.88s-0.08,0.64-0.24,0.88s-0.38,0.43-0.67,0.56c-0.29,0.13-0.65,0.2-1.06,0.2h-1.47l0.3-0.31v1.75
			H134.07z M134.75,148.56l-0.3-0.33h1.45c0.43,0,0.76-0.09,0.98-0.28c0.22-0.19,0.33-0.45,0.33-0.79s-0.11-0.6-0.33-0.78
			c-0.22-0.18-0.55-0.28-0.98-0.28h-1.45l0.3-0.34V148.56z M137.23,150.24l-1.2-1.71h0.72l1.22,1.71H137.23z"/>
		<path class="st0" d="M142.21,150.24v-4.14h-1.62v-0.59h3.91v0.59h-1.62v4.14H142.21z"/>
		<path class="st0" d="M147.45,150.28c-0.13,0-0.23-0.04-0.32-0.13c-0.09-0.09-0.14-0.2-0.14-0.33c0-0.13,0.05-0.24,0.14-0.33
			c0.09-0.09,0.2-0.13,0.32-0.13c0.12,0,0.23,0.04,0.31,0.13c0.09,0.09,0.13,0.2,0.13,0.33c0,0.14-0.04,0.25-0.13,0.33
			C147.68,150.24,147.57,150.28,147.45,150.28z"/>
		<path class="st0" d="M151.29,150.24v-4.73h1.84c0.41,0,0.77,0.07,1.06,0.2c0.29,0.13,0.52,0.32,0.67,0.57
			c0.16,0.25,0.24,0.54,0.24,0.88s-0.08,0.64-0.24,0.88s-0.38,0.43-0.67,0.56c-0.29,0.13-0.65,0.2-1.06,0.2h-1.47l0.3-0.31v1.75
			H151.29z M151.96,148.56l-0.3-0.33h1.45c0.43,0,0.76-0.09,0.98-0.28c0.22-0.19,0.33-0.45,0.33-0.79s-0.11-0.6-0.33-0.78
			c-0.22-0.18-0.55-0.28-0.98-0.28h-1.45l0.3-0.34V148.56z M154.45,150.24l-1.2-1.71h0.72l1.22,1.71H154.45z"/>
		<path class="st0" d="M160.51,150.3c-0.62,0-1.11-0.18-1.46-0.53c-0.36-0.36-0.53-0.88-0.53-1.56v-2.69h0.68v2.66
			c0,0.53,0.12,0.91,0.35,1.15c0.23,0.24,0.56,0.36,0.98,0.36c0.43,0,0.76-0.12,0.99-0.36c0.23-0.24,0.35-0.63,0.35-1.15v-2.66h0.65
			v2.69c0,0.68-0.18,1.2-0.53,1.56C161.63,150.12,161.14,150.3,160.51,150.3z"/>
	</g>
	<g>
		<path class="st0" d="M163.87,117.12c-1.19-1.32-2.37-2.64-3.55-3.97l-3.53-3.98l-7.02-8l1.58-0.45l-0.43,4.77l-0.22,2.42
			l-1.63-1.89l-6.01-6.99c-2.01-2.32-3.99-4.67-5.99-7.01l2.74-0.45l-2.07,6.21l-2.08,6.21l-1.57,4.68l-2.12-4.57
			c-1.67-3.62-3.33-7.25-4.97-10.86c-1.63-3.61-3.32-7.18-5.03-10.76l4.49-0.06c-0.66,1.57-1.23,3.14-1.79,4.79l-2.12,6.18
			l-2.6-6.07l-5.46-12.72c-1.83-4.24-3.63-8.5-5.4-12.78l4.88,0.49l-4.79,7.24l-3.07,4.64l-1.92-5.24
			c-0.69-1.88-1.57-3.76-2.51-5.68c-0.94-1.92-1.94-3.88-2.86-5.97l5.1,0.22c-0.11,0.21-0.23,0.42-0.32,0.61l-0.11,0.24
			c-0.01,0.02-0.02,0.05-0.01,0.01c0.01-0.02,0.02-0.05,0.06-0.19l0.02-0.07l0.02-0.1l0.02-0.14l0.01-0.12
			c0-0.05,0.01-0.1,0.01-0.16c0-0.06,0-0.1,0-0.17c0-0.13-0.02-0.27-0.04-0.4c-0.01-0.07-0.03-0.13-0.04-0.2l-0.03-0.1l-0.03-0.09
			l-0.04-0.13c-0.13-0.34-0.34-0.68-0.58-0.93l-0.1-0.1c-0.05-0.05-0.1-0.09-0.15-0.13c-0.1-0.09-0.22-0.17-0.34-0.25
			c-0.25-0.15-0.52-0.27-0.79-0.33c-0.07-0.02-0.14-0.03-0.2-0.04c-0.06-0.01-0.15-0.02-0.17-0.02c-0.07-0.01-0.15-0.01-0.22-0.02
			c-0.15,0-0.31,0-0.46,0.02c-0.15,0.02-0.3,0.05-0.44,0.1l-0.12,0.04l-0.08,0.03c-0.11,0.04-0.21,0.09-0.31,0.14l-0.13,0.08
			l-0.06,0.04l-0.12,0.08l-0.1,0.08l-0.06,0.05l-0.1,0.09l-0.06,0.05l-0.08,0.08l-0.04,0.05l-0.07,0.08c-0.02,0.02-0.01,0.01,0,0
			c0.02-0.02,0.04-0.07,0.06-0.1c0.01-0.03,0.02-0.05-0.01,0.03c-0.01,0.04-0.04,0.11-0.07,0.28c-0.01,0.09-0.03,0.21-0.02,0.42
			c0.01,0.21,0.02,0.51,0.24,0.99l5.08,0.18c-2.31,4.22-4.57,8.48-6.87,12.75c-1.15,2.13-2.33,4.26-3.51,6.38
			c-1.19,2.12-2.4,4.24-3.64,6.34l-5.19,8.8l0.08-10.18l0.08-9.5l4.98,1.3C88.58,75.62,87.3,77.81,86,80l-3.93,6.52l-3.92,6.49
			c-1.31,2.16-2.6,4.32-3.87,6.49l-3.21,5.49l-0.99-6.2c-0.05-0.33-0.1-0.67-0.14-1.05c-0.02-0.19-0.03-0.39-0.04-0.65
			c0-0.14,0-0.27,0.02-0.52c0.02-0.13,0.02-0.26,0.14-0.61c0.01-0.03,0.04-0.11,0.06-0.16l0.04-0.09l0.05-0.1
			c0.05-0.09,0.11-0.18,0.17-0.27c0.02-0.03,0.09-0.12,0.15-0.18c0.06-0.07,0.12-0.13,0.19-0.19c0.04-0.03,0.06-0.05,0.11-0.09
			c0.05-0.04,0.11-0.08,0.16-0.12c0.11-0.07,0.24-0.14,0.36-0.19c0.25-0.11,0.61-0.18,0.91-0.17c0.13,0,0.27,0.02,0.4,0.04
			c0.07,0.01,0.13,0.03,0.2,0.05c0.07,0.02,0.13,0.04,0.16,0.05c0.16,0.06,0.34,0.15,0.46,0.23c0.09,0.06,0.18,0.13,0.26,0.2
			c0.07,0.06,0.11,0.1,0.16,0.16l0.07,0.08l0.05,0.05l0.09,0.11c0.04,0.06,0.08,0.11,0.11,0.17l0.07,0.13
			c0.08,0.16,0.12,0.27,0.16,0.37c0.07,0.2,0.11,0.35,0.15,0.51c0.07,0.3,0.1,0.57,0.11,0.87c0.01,0.29-0.01,0.6-0.07,0.94
			c-0.07,0.34-0.18,0.73-0.42,1.14l-2.84,4.88l-1.21-5.48c-0.46-2.07-0.65-4.09-0.87-6c-0.21-1.92-0.45-3.74-0.92-5.45l3.43,0.65
			c-0.11,0.14-0.23,0.28-0.32,0.41l-0.12,0.16c-0.01,0.02-0.02,0.03-0.01,0c0.01-0.02,0.02-0.03,0.07-0.14
			c0.02-0.06,0.07-0.13,0.11-0.44c0.01-0.07,0.01-0.13,0.02-0.2l0-0.1l-0.01-0.12c-0.01-0.16-0.05-0.33-0.11-0.48l-0.05-0.11
			l-0.03-0.06l-0.04-0.07c-0.07-0.13-0.16-0.26-0.26-0.38c-0.1-0.12-0.22-0.22-0.35-0.31c-0.13-0.09-0.22-0.14-0.34-0.19
			c-0.22-0.1-0.5-0.15-0.7-0.15c-0.11,0-0.22,0-0.33,0.02c-0.11,0.01-0.24,0.05-0.26,0.06c-0.09,0.02-0.19,0.07-0.25,0.09
			c-0.04,0.02-0.08,0.04-0.12,0.06c-0.07,0.04-0.1,0.06-0.14,0.08l-0.07,0.05l-0.04,0.03c-0.04,0.03-0.05,0.04-0.06,0.05
			c-0.01,0.01-0.01,0.01,0,0c0.02-0.01,0.04-0.04,0.06-0.06c0.01-0.02,0.02-0.03,0,0.02c-0.01,0.03-0.03,0.07-0.06,0.18
			c-0.01,0.05-0.03,0.13-0.04,0.23c-0.01,0.12-0.02,0.27,0.02,0.48l3.42,0.8c-1.13,1.45-2.28,2.86-3.44,4.25
			c-1.17,1.39-2.33,2.77-3.51,4.13c-2.35,2.73-4.64,5.47-6.81,8.28l-1.83,2.38l-0.56-2.85l-1.28-6.49l1.86,0.57
			c-1.71,1.5-3.39,3.05-5.05,4.62c-1.67,1.56-3.32,3.15-4.97,4.75c-1.65,1.59-3.29,3.2-4.97,4.77c-1.68,1.57-3.37,3.13-5.11,4.63
			c1.57-1.68,3.11-3.37,4.63-5.09l4.55-5.16c1.52-1.72,3.04-3.44,4.59-5.15c1.56-1.69,3.15-3.36,4.79-5l1.35-1.35l0.51,1.91
			l1.7,6.39l-2.39-0.48c2.02-3.05,4.24-5.94,6.43-8.81c2.19-2.87,4.4-5.69,6.44-8.59L71.36,82l0.79,4.55
			c0.05,0.26,0.04,0.46,0.02,0.63c-0.02,0.15-0.05,0.28-0.07,0.38c-0.06,0.2-0.12,0.34-0.17,0.45c-0.11,0.23-0.21,0.38-0.31,0.53
			c-0.1,0.14-0.2,0.27-0.31,0.4c-0.06,0.07-0.12,0.14-0.21,0.22c-0.05,0.04-0.09,0.09-0.17,0.15l-0.07,0.05l-0.1,0.07
			c-0.05,0.03-0.09,0.06-0.17,0.1c-0.05,0.03-0.09,0.05-0.14,0.07c-0.07,0.03-0.18,0.08-0.27,0.1c-0.02,0.01-0.15,0.04-0.27,0.06
			c-0.11,0.02-0.23,0.02-0.34,0.02c-0.2,0-0.49-0.06-0.71-0.16c-0.12-0.05-0.21-0.1-0.34-0.19c-0.12-0.09-0.25-0.19-0.35-0.31
			c-0.11-0.12-0.19-0.25-0.26-0.38l-0.04-0.07l-0.03-0.06l-0.05-0.12c-0.06-0.16-0.1-0.33-0.11-0.49l-0.01-0.08l0-0.05l0-0.1
			c0-0.07,0.01-0.14,0.02-0.21c0.05-0.33,0.11-0.43,0.13-0.51c0.07-0.16,0.1-0.21,0.13-0.28c0.06-0.11,0.11-0.18,0.15-0.25
			c0.08-0.13,0.15-0.23,0.22-0.33c0.14-0.19,0.26-0.37,0.39-0.54l2.26-3.02l1.17,3.66c0.65,2.04,0.99,4.08,1.29,6.03
			c0.3,1.95,0.57,3.81,1.02,5.54l-4.05-0.59c-0.16,0.3-0.11,0.33-0.13,0.3c0-0.01-0.01-0.04-0.01-0.04c0,0,0,0.01,0.02,0.07
			c0.01,0.03,0.02,0.07,0.07,0.16l0.05,0.08c0.02,0.04,0.05,0.08,0.08,0.12l0.07,0.09l0.04,0.04l0.06,0.07
			c0.05,0.05,0.07,0.08,0.14,0.14c0.07,0.07,0.16,0.13,0.24,0.18c0.11,0.07,0.28,0.17,0.43,0.22c0.03,0.01,0.09,0.03,0.15,0.05
			c0.06,0.02,0.12,0.03,0.19,0.05c0.13,0.03,0.26,0.04,0.38,0.04c0.29,0.01,0.64-0.06,0.88-0.17c0.12-0.05,0.24-0.11,0.35-0.18
			c0.05-0.04,0.11-0.07,0.16-0.11l0.1-0.08c0.06-0.05,0.12-0.11,0.18-0.18c0.05-0.05,0.12-0.15,0.14-0.17
			c0.06-0.08,0.11-0.16,0.15-0.24l0.05-0.09l0.03-0.07c0.02-0.04,0.05-0.12,0.05-0.14c0.09-0.27,0.08-0.33,0.09-0.38
			c0.01-0.09,0.01-0.08,0.01-0.06c0,0.04,0.01,0.15,0.03,0.26c0.03,0.23,0.08,0.49,0.13,0.76l-4.2-0.71
			c2.42-4.48,4.93-8.9,7.44-13.29l3.74-6.59c1.24-2.19,2.47-4.39,3.68-6.59l4.9-8.97l0.09,10.27l0.08,9.5l-5.11-1.38
			c1.19-2.07,2.36-4.17,3.51-6.27c1.15-2.11,2.28-4.23,3.42-6.35c2.27-4.25,4.53-8.53,6.84-12.8l2.76-5.1l2.32,5.28
			c0.24,0.54,0.26,0.91,0.28,1.18c0.01,0.28-0.01,0.46-0.04,0.62c-0.05,0.31-0.11,0.5-0.16,0.66c-0.11,0.32-0.21,0.54-0.31,0.74
			c-0.1,0.2-0.21,0.39-0.33,0.58c-0.06,0.1-0.13,0.2-0.22,0.32c-0.05,0.06-0.1,0.13-0.19,0.24l-0.08,0.09l-0.11,0.12l-0.07,0.07
			l-0.12,0.11l-0.06,0.05l-0.11,0.09l-0.13,0.09l-0.07,0.04l-0.14,0.08c-0.1,0.06-0.21,0.11-0.33,0.15l-0.08,0.03l-0.12,0.04
			c-0.14,0.04-0.3,0.08-0.45,0.1c-0.15,0.02-0.31,0.03-0.46,0.02c-0.08,0-0.15-0.01-0.23-0.02c-0.02,0-0.12-0.01-0.18-0.03
			c-0.07-0.01-0.13-0.03-0.2-0.04c-0.27-0.07-0.55-0.18-0.8-0.33c-0.12-0.08-0.24-0.16-0.34-0.25c-0.05-0.04-0.1-0.09-0.15-0.13
			l-0.1-0.1c-0.25-0.26-0.46-0.6-0.59-0.95l-0.05-0.13l-0.03-0.09l-0.03-0.1c-0.02-0.07-0.03-0.14-0.04-0.21
			c-0.02-0.14-0.04-0.28-0.04-0.42c0-0.07,0-0.12,0-0.18l0.01-0.17l0.01-0.13l0.03-0.16L98,56.85l0.02-0.09
			c0.05-0.2,0.09-0.3,0.12-0.37c0.06-0.16,0.1-0.25,0.15-0.35c0.08-0.18,0.15-0.32,0.22-0.46c0.14-0.28,0.27-0.53,0.41-0.77
			l2.79-5.1l2.31,5.32c1.64,3.78,3.86,7.61,5.46,12l-4.99-0.6l4.86-7.19l2.92-4.33l1.96,4.82l5.2,12.81
			c1.74,4.28,3.5,8.55,5.19,12.86l-4.72,0.11c0.62-1.66,1.29-3.37,2.04-5.02l2.28-5.06l2.22,5c0.81,1.83,1.62,3.66,2.39,5.5
			c0.78,1.84,1.55,3.69,2.3,5.54l4.48,11.06l-3.69,0.11l2.43-6.08l2.45-6.07l1.07-2.64l1.67,2.19c1.86,2.44,3.74,4.88,5.59,7.33
			l5.56,7.35l-1.85,0.53l0.74-4.73l0.33-2.11l1.25,1.66l6.39,8.51l3.17,4.27C161.77,114.26,162.82,115.68,163.87,117.12z"/>
		<path class="st0" d="M90.22,94.12c0.14-0.41,0.32-0.8,0.49-1.2c0.17-0.4,0.35-0.79,0.52-1.18c0.35-0.78,0.71-1.57,1.09-2.34
			c0.74-1.55,1.5-3.09,2.29-4.61c1.57-3.05,3.2-6.06,4.88-9.04l1.21-2.15l1.15,2.25c0.72,1.41,1.4,2.82,2.11,4.24l2.07,4.25
			l-2.49-0.15c0.86-1.32,1.7-2.65,2.57-3.96c0.86-1.32,1.74-2.62,2.62-3.93l1.37-2.03l0.91,2.19c1.01,2.41,1.97,4.85,2.87,7.31
			l0.67,1.85l0.63,1.87c0.42,1.25,0.81,2.5,1.17,3.78c-0.73-1.1-1.43-2.22-2.1-3.35l-1-1.7l-0.97-1.71
			c-1.27-2.29-2.48-4.61-3.65-6.95l2.29,0.16c-0.82,1.35-1.64,2.69-2.47,4.03c-0.82,1.34-1.68,2.66-2.52,4l-1.38,2.18l-1.11-2.34
			l-2.03-4.27c-0.66-1.43-1.34-2.85-1.99-4.29l2.36,0.11c-1.82,2.9-3.68,5.77-5.6,8.61c-0.96,1.42-1.94,2.82-2.94,4.22
			C92.28,91.36,91.23,92.73,90.22,94.12z"/>
		<path class="st0" d="M59.1,107.47c0.59-0.89,1.18-1.77,1.78-2.64c0.6-0.88,1.21-1.75,1.82-2.62c0.6-0.87,1.23-1.73,1.85-2.6
			c0.62-0.87,1.24-1.73,1.86-2.58l0.72-0.98l0.32,1.21c0.31,1.18,0.64,2.37,0.94,3.55c0.31,1.19,0.6,2.38,0.89,3.56
			c0.29,1.19,0.58,2.38,0.85,3.57c0.28,1.19,0.55,2.39,0.82,3.58l-1.45-0.24c0.83-1.31,1.66-2.61,2.5-3.91
			c0.84-1.3,1.7-2.58,2.57-3.87c0.43-0.65,0.87-1.28,1.31-1.92c0.44-0.64,0.88-1.28,1.33-1.91c0.89-1.27,1.8-2.52,2.74-3.76
			c-0.68,1.39-1.41,2.77-2.14,4.13c-0.36,0.69-0.74,1.36-1.11,2.04c-0.37,0.68-0.75,1.36-1.13,2.03c-0.77,1.34-1.53,2.69-2.32,4.02
			c-0.79,1.33-1.58,2.66-2.38,3.98l-1.01,1.66l-0.44-1.9c-0.28-1.19-0.56-2.38-0.83-3.58c-0.27-1.19-0.54-2.39-0.8-3.59
			c-0.26-1.2-0.51-2.39-0.76-3.6c-0.25-1.2-0.48-2.4-0.71-3.61l1.04,0.23c-0.67,0.83-1.34,1.64-2.03,2.46
			c-0.68,0.81-1.35,1.64-2.05,2.44c-0.69,0.81-1.37,1.62-2.07,2.42C60.51,105.87,59.81,106.67,59.1,107.47z"/>
		<path class="st0" d="M125.65,102.23c0.82,1.16,1.63,2.34,2.43,3.52c0.79,1.19,1.59,2.37,2.37,3.57c0.79,1.19,1.56,2.4,2.32,3.61
			l1.15,1.81l1.13,1.83l-1.3,0.16c0.41-1.45,0.81-2.9,1.24-4.34l1.27-4.33l1.32-4.31c0.43-1.44,0.9-2.87,1.35-4.3l0.39-1.22
			l0.83,0.94c0.95,1.08,1.91,2.16,2.84,3.25c0.94,1.09,1.88,2.18,2.81,3.29c0.93,1.1,1.85,2.21,2.77,3.32
			c0.91,1.11,1.82,2.24,2.7,3.38c-1.05-0.99-2.09-1.99-3.12-3c-1.03-1.01-2.05-2.03-3.06-3.05c-1.02-1.02-2.02-2.06-3.02-3.09
			c-1.01-1.03-2-2.07-2.98-3.12l1.22-0.28c-0.41,1.45-0.81,2.9-1.24,4.34l-1.27,4.33l-1.32,4.31c-0.43,1.44-0.9,2.87-1.36,4.3
			l-0.5,1.57l-0.81-1.4l-1.06-1.85l-1.04-1.86c-0.7-1.24-1.39-2.49-2.07-3.74c-0.69-1.25-1.36-2.51-2.03-3.78
			C126.95,104.8,126.3,103.52,125.65,102.23z"/>
	</g>
</g>
</svg>
